<svg xmlns="http://www.w3.org/2000/svg" width="1440" height="900">
    <path d="M780,479L852,399L761,415Z" fill="#72c275" stroke="#72c275" stroke-width="1.51"/>
    <path d="M780,479L889,508L852,399Z" fill="#64bb6e" stroke="#64bb6e" stroke-width="1.51"/>
    <path d="M761,415L688,508L780,479Z" fill="#71c275" stroke="#71c275" stroke-width="1.51"/>
    <path d="M761,284L691,384L761,415Z" fill="#8bce80" stroke="#8bce80" stroke-width="1.51"/>
    <path d="M852,399L761,284L761,415Z" fill="#83c97b" stroke="#83c97b" stroke-width="1.51"/>
    <path d="M961,401L858,303L852,399Z" fill="#74c273" stroke="#74c273" stroke-width="1.51"/>
    <path d="M691,384L688,508L761,415Z" fill="#7dc87b" stroke="#7dc87b" stroke-width="1.51"/>
    <path d="M780,479L749,599L889,508Z" fill="#59b668" stroke="#59b668" stroke-width="1.51"/>
    <path d="M889,508L949,489L852,399Z" fill="#5bb669" stroke="#5bb669" stroke-width="1.51"/>
    <path d="M949,489L961,401L852,399Z" fill="#62b86b" stroke="#62b86b" stroke-width="1.51"/>
    <path d="M858,303L761,284L852,399Z" fill="#87cb7c" stroke="#87cb7c" stroke-width="1.51"/>
    <path d="M688,508L749,599L780,479Z" fill="#63bb6d" stroke="#63bb6d" stroke-width="1.51"/>
    <path d="M889,508L954,589L949,489Z" fill="#48ab5e" stroke="#48ab5e" stroke-width="1.51"/>
    <path d="M749,599L880,611L889,508Z" fill="#4aad60" stroke="#4aad60" stroke-width="1.51"/>
    <path d="M691,384L585,414L688,508Z" fill="#86cc7e" stroke="#86cc7e" stroke-width="1.51"/>
    <path d="M761,284L652,300L691,384Z" fill="#99d486" stroke="#99d486" stroke-width="1.51"/>
    <path d="M961,401L975,304L858,303Z" fill="#79c072" stroke="#79c072" stroke-width="1.51"/>
    <path d="M858,303L781,198L761,284Z" fill="#98d284" stroke="#98d284" stroke-width="1.51"/>
    <path d="M1063,389L975,304L961,401Z" fill="#6cb66b" stroke="#6cb66b" stroke-width="1.51"/>
    <path d="M880,611L954,589L889,508Z" fill="#40a95c" stroke="#40a95c" stroke-width="1.51"/>
    <path d="M949,489L1063,389L961,401Z" fill="#5db166" stroke="#5db166" stroke-width="1.51"/>
    <path d="M652,300L585,414L691,384Z" fill="#98d485" stroke="#98d485" stroke-width="1.51"/>
    <path d="M688,508L651,614L749,599Z" fill="#60b86b" stroke="#60b86b" stroke-width="1.51"/>
    <path d="M891,184L781,198L858,303Z" fill="#99d183" stroke="#99d183" stroke-width="1.51"/>
    <path d="M761,284L690,178L652,300Z" fill="#a7da8c" stroke="#a7da8c" stroke-width="1.51"/>
    <path d="M756,718L882,698L880,611Z" fill="#3d9c54" stroke="#3d9c54" stroke-width="1.51"/>
    <path d="M575,499L651,614L688,508Z" fill="#71c072" stroke="#71c072" stroke-width="1.51"/>
    <path d="M585,414L575,499L688,508Z" fill="#82ca7c" stroke="#82ca7c" stroke-width="1.51"/>
    <path d="M1086,508L1063,389L949,489Z" fill="#51a860" stroke="#51a860" stroke-width="1.51"/>
    <path d="M975,213L891,184L858,303Z" fill="#90cc7e" stroke="#90cc7e" stroke-width="1.51"/>
    <path d="M975,213L858,303L975,304Z" fill="#85c578" stroke="#85c578" stroke-width="1.51"/>
    <path d="M756,718L880,611L749,599Z" fill="#49a55b" stroke="#49a55b" stroke-width="1.51"/>
    <path d="M880,611L882,698L954,589Z" fill="#389e54" stroke="#389e54" stroke-width="1.51"/>
    <path d="M652,300L569,309L585,414Z" fill="#a3d98a" stroke="#a3d98a" stroke-width="1.51"/>
    <path d="M585,414L482,407L575,499Z" fill="#94d284" stroke="#94d284" stroke-width="1.51"/>
    <path d="M575,201L569,309L652,300Z" fill="#b2df91" stroke="#b2df91" stroke-width="1.51"/>
    <path d="M1053,285L975,213L975,304Z" fill="#81bf73" stroke="#81bf73" stroke-width="1.51"/>
    <path d="M781,198L690,178L761,284Z" fill="#a7da8c" stroke="#a7da8c" stroke-width="1.51"/>
    <path d="M785,111L690,178L781,198Z" fill="#aedc91" stroke="#aedc91" stroke-width="1.51"/>
    <path d="M1063,582L1086,508L949,489Z" fill="#40a158" stroke="#40a158" stroke-width="1.51"/>
    <path d="M1063,582L949,489L954,589Z" fill="#3ca257" stroke="#3ca257" stroke-width="1.51"/>
    <path d="M1063,389L1053,285L975,304Z" fill="#73b76c" stroke="#73b76c" stroke-width="1.51"/>
    <path d="M1167,317L1053,285L1063,389Z" fill="#6daf67" stroke="#6daf67" stroke-width="1.51"/>
    <path d="M665,684L756,718L749,599Z" fill="#50a65e" stroke="#50a65e" stroke-width="1.51"/>
    <path d="M651,614L665,684L749,599Z" fill="#5bae65" stroke="#5bae65" stroke-width="1.51"/>
    <path d="M567,709L665,684L651,614Z" fill="#60ab63" stroke="#60ab63" stroke-width="1.51"/>
    <path d="M990,701L1063,582L954,589Z" fill="#31954f" stroke="#31954f" stroke-width="1.51"/>
    <path d="M575,499L550,608L651,614Z" fill="#71be71" stroke="#71be71" stroke-width="1.51"/>
    <path d="M481,587L550,608L575,499Z" fill="#7bc475" stroke="#7bc475" stroke-width="1.51"/>
    <path d="M882,698L990,701L954,589Z" fill="#30954e" stroke="#30954e" stroke-width="1.51"/>
    <path d="M969,782L990,701L882,698Z" fill="#288c49" stroke="#288c49" stroke-width="1.51"/>
    <path d="M891,184L785,111L781,198Z" fill="#a5d78b" stroke="#a5d78b" stroke-width="1.51"/>
    <path d="M859,74L785,111L891,184Z" fill="#a7d78d" stroke="#a7d78d" stroke-width="1.51"/>
    <path d="M569,309L482,407L585,414Z" fill="#a3d98a" stroke="#a3d98a" stroke-width="1.51"/>
    <path d="M569,309L471,284L482,407Z" fill="#b2df90" stroke="#b2df90" stroke-width="1.51"/>
    <path d="M690,178L575,201L652,300Z" fill="#b4e092" stroke="#b4e092" stroke-width="1.51"/>
    <path d="M659,104L575,201L690,178Z" fill="#bee498" stroke="#bee498" stroke-width="1.51"/>
    <path d="M482,407L472,512L575,499Z" fill="#92d182" stroke="#92d182" stroke-width="1.51"/>
    <path d="M1086,508L1160,409L1063,389Z" fill="#52a45e" stroke="#52a45e" stroke-width="1.51"/>
    <path d="M1179,499L1160,409L1086,508Z" fill="#479d58" stroke="#479d58" stroke-width="1.51"/>
    <path d="M756,718L753,782L882,698Z" fill="#3e9754" stroke="#3e9754" stroke-width="1.51"/>
    <path d="M671,797L753,782L756,718Z" fill="#469858" stroke="#469858" stroke-width="1.51"/>
    <path d="M671,797L756,718L665,684Z" fill="#4e9e5c" stroke="#4e9e5c" stroke-width="1.51"/>
    <path d="M1053,285L1066,183L975,213Z" fill="#86bf75" stroke="#86bf75" stroke-width="1.51"/>
    <path d="M971,82L859,74L891,184Z" fill="#a1d389" stroke="#a1d389" stroke-width="1.51"/>
    <path d="M1173,206L1066,183L1053,285Z" fill="#82b871" stroke="#82b871" stroke-width="1.51"/>
    <path d="M990,701L1067,691L1063,582Z" fill="#298b48" stroke="#298b48" stroke-width="1.51"/>
    <path d="M1176,584L1179,499L1086,508Z" fill="#379652" stroke="#379652" stroke-width="1.51"/>
    <path d="M1060,808L1067,691L990,701Z" fill="#208143" stroke="#208143" stroke-width="1.51"/>
    <path d="M550,608L567,709L651,614Z" fill="#69b368" stroke="#69b368" stroke-width="1.51"/>
    <path d="M472,512L481,587L575,499Z" fill="#85c97b" stroke="#85c97b" stroke-width="1.51"/>
    <path d="M971,82L891,184L975,213Z" fill="#97cc82" stroke="#97cc82" stroke-width="1.51"/>
    <path d="M785,111L659,104L690,178Z" fill="#b8e197" stroke="#b8e197" stroke-width="1.51"/>
    <path d="M751,14L659,104L785,111Z" fill="#b9e19e" stroke="#b9e19e" stroke-width="1.51"/>
    <path d="M486,720L567,709L550,608Z" fill="#6db068" stroke="#6db068" stroke-width="1.51"/>
    <path d="M575,201L471,284L569,309Z" fill="#bce395" stroke="#bce395" stroke-width="1.51"/>
    <path d="M482,407L362,406L472,512Z" fill="#a2d88a" stroke="#a2d88a" stroke-width="1.51"/>
    <path d="M479,205L471,284L575,201Z" fill="#c6e89a" stroke="#c6e89a" stroke-width="1.51"/>
    <path d="M1176,584L1086,508L1063,582Z" fill="#32964f" stroke="#32964f" stroke-width="1.51"/>
    <path d="M753,782L890,801L882,698Z" fill="#33914f" stroke="#33914f" stroke-width="1.51"/>
    <path d="M1160,409L1167,317L1063,389Z" fill="#61a863" stroke="#61a863" stroke-width="1.51"/>
    <path d="M1257,386L1167,317L1160,409Z" fill="#5da360" stroke="#5da360" stroke-width="1.51"/>
    <path d="M890,801L969,782L882,698Z" fill="#278b4a" stroke="#278b4a" stroke-width="1.51"/>
    <path d="M1066,183L971,82L975,213Z" fill="#93c57d" stroke="#93c57d" stroke-width="1.51"/>
    <path d="M567,709L671,797L665,684Z" fill="#59a35f" stroke="#59a35f" stroke-width="1.51"/>
    <path d="M753,782L782,895L890,801Z" fill="#35894e" stroke="#35894e" stroke-width="1.51"/>
    <path d="M1154,691L1176,584L1063,582Z" fill="#278948" stroke="#278948" stroke-width="1.51"/>
    <path d="M566,76L479,205L575,201Z" fill="#ccea9f" stroke="#ccea9f" stroke-width="1.51"/>
    <path d="M1158,80L1068,103L1066,183Z" fill="#90bd7a" stroke="#90bd7a" stroke-width="1.51"/>
    <path d="M1066,183L1068,103L971,82Z" fill="#95c47e" stroke="#95c47e" stroke-width="1.51"/>
    <path d="M859,74L751,14L785,111Z" fill="#b1dc9b" stroke="#b1dc9b" stroke-width="1.51"/>
    <path d="M659,104L566,76L575,201Z" fill="#c8e89e" stroke="#c8e89e" stroke-width="1.51"/>
    <path d="M884,-14L751,14L859,74Z" fill="#addaa0" stroke="#addaa0" stroke-width="1.51"/>
    <path d="M884,-14L859,74L971,82Z" fill="#a3d496" stroke="#a3d496" stroke-width="1.51"/>
    <path d="M1060,808L1154,691L1067,691Z" fill="#1b7c3f" stroke="#1b7c3f" stroke-width="1.51"/>
    <path d="M1067,691L1154,691L1063,582Z" fill="#258645" stroke="#258645" stroke-width="1.51"/>
    <path d="M1167,317L1173,206L1053,285Z" fill="#77b26c" stroke="#77b26c" stroke-width="1.51"/>
    <path d="M1281,310L1173,206L1167,317Z" fill="#71aa68" stroke="#71aa68" stroke-width="1.51"/>
    <path d="M481,587L486,720L550,608Z" fill="#75b96e" stroke="#75b96e" stroke-width="1.51"/>
    <path d="M567,709L556,804L671,797Z" fill="#5aa05f" stroke="#5aa05f" stroke-width="1.51"/>
    <path d="M374,604L486,720L481,587Z" fill="#7dbc71" stroke="#7dbc71" stroke-width="1.51"/>
    <path d="M649,17L566,76L659,104Z" fill="#c9e8a7" stroke="#c9e8a7" stroke-width="1.51"/>
    <path d="M1179,499L1252,489L1160,409Z" fill="#459957" stroke="#459957" stroke-width="1.51"/>
    <path d="M1176,584L1252,489L1179,499Z" fill="#359250" stroke="#359250" stroke-width="1.51"/>
    <path d="M1270,622L1252,489L1176,584Z" fill="#278a4a" stroke="#278a4a" stroke-width="1.51"/>
    <path d="M1252,489L1257,386L1160,409Z" fill="#4d9b5a" stroke="#4d9b5a" stroke-width="1.51"/>
    <path d="M751,14L649,17L659,104Z" fill="#c0e4a7" stroke="#c0e4a7" stroke-width="1.51"/>
    <path d="M969,782L1060,808L990,701Z" fill="#1f8143" stroke="#1f8143" stroke-width="1.51"/>
    <path d="M992,904L1060,808L969,782Z" fill="#1a763f" stroke="#1a763f" stroke-width="1.51"/>
    <path d="M992,904L969,782L890,801Z" fill="#1f7d44" stroke="#1f7d44" stroke-width="1.51"/>
    <path d="M671,797L782,895L753,782Z" fill="#408e53" stroke="#408e53" stroke-width="1.51"/>
    <path d="M486,720L556,804L567,709Z" fill="#66a764" stroke="#66a764" stroke-width="1.51"/>
    <path d="M370,301L482,407L471,284Z" fill="#bbe394" stroke="#bbe394" stroke-width="1.51"/>
    <path d="M370,301L362,406L482,407Z" fill="#b6e193" stroke="#b6e193" stroke-width="1.51"/>
    <path d="M472,512L374,604L481,587Z" fill="#87c87a" stroke="#87c87a" stroke-width="1.51"/>
    <path d="M956,-11L884,-14L971,82Z" fill="#a2d199" stroke="#a2d199" stroke-width="1.51"/>
    <path d="M751,14L679,-115L649,17Z" fill="#c1e4b0" stroke="#c1e4b0" stroke-width="1.51"/>
    <path d="M362,406L358,500L472,512Z" fill="#a0d789" stroke="#a0d789" stroke-width="1.51"/>
    <path d="M647,891L782,895L671,797Z" fill="#448b53" stroke="#448b53" stroke-width="1.51"/>
    <path d="M360,201L471,284L479,205Z" fill="#cfec9e" stroke="#cfec9e" stroke-width="1.51"/>
    <path d="M360,201L370,301L471,284Z" fill="#cdeb9d" stroke="#cdeb9d" stroke-width="1.51"/>
    <path d="M1060,3L971,82L1068,103Z" fill="#98c589" stroke="#98c589" stroke-width="1.51"/>
    <path d="M1060,3L956,-11L971,82Z" fill="#9cca93" stroke="#9cca93" stroke-width="1.51"/>
    <path d="M486,720L468,820L556,804Z" fill="#67a463" stroke="#67a463" stroke-width="1.51"/>
    <path d="M358,500L374,604L472,512Z" fill="#92cf80" stroke="#92cf80" stroke-width="1.51"/>
    <path d="M556,804L647,891L671,797Z" fill="#529459" stroke="#529459" stroke-width="1.51"/>
    <path d="M1257,386L1281,310L1167,317Z" fill="#63a362" stroke="#63a362" stroke-width="1.51"/>
    <path d="M1173,206L1158,80L1066,183Z" fill="#89b975" stroke="#89b975" stroke-width="1.51"/>
    <path d="M1356,317L1281,310L1257,386Z" fill="#5f9d5f" stroke="#5f9d5f" stroke-width="1.51"/>
    <path d="M782,895L891,915L890,801Z" fill="#2b7e48" stroke="#2b7e48" stroke-width="1.51"/>
    <path d="M884,985L891,915L782,895Z" fill="#2a7946" stroke="#2a7946" stroke-width="1.51"/>
    <path d="M1154,691L1270,622L1176,584Z" fill="#208244" stroke="#208244" stroke-width="1.51"/>
    <path d="M1381,398L1356,317L1257,386Z" fill="#57965b" stroke="#57965b" stroke-width="1.51"/>
    <path d="M1290,721L1270,622L1154,691Z" fill="#16773d" stroke="#16773d" stroke-width="1.51"/>
    <path d="M1254,181L1158,80L1173,206Z" fill="#85b373" stroke="#85b373" stroke-width="1.51"/>
    <path d="M566,76L448,92L479,205Z" fill="#d6eea5" stroke="#d6eea5" stroke-width="1.51"/>
    <path d="M649,17L550,11L566,76Z" fill="#ceebaf" stroke="#ceebaf" stroke-width="1.51"/>
    <path d="M567,-96L550,11L649,17Z" fill="#d0ebb6" stroke="#d0ebb6" stroke-width="1.51"/>
    <path d="M1158,80L1060,3L1068,103Z" fill="#93bf85" stroke="#93bf85" stroke-width="1.51"/>
    <path d="M550,11L448,92L566,76Z" fill="#d7eeaf" stroke="#d7eeaf" stroke-width="1.51"/>
    <path d="M1060,808L1195,804L1154,691Z" fill="#12743c" stroke="#12743c" stroke-width="1.51"/>
    <path d="M891,915L992,904L890,801Z" fill="#207842" stroke="#207842" stroke-width="1.51"/>
    <path d="M448,92L360,201L479,205Z" fill="#d9f0a5" stroke="#d9f0a5" stroke-width="1.51"/>
    <path d="M267,305L265,421L362,406Z" fill="#bfe598" stroke="#bfe598" stroke-width="1.51"/>
    <path d="M362,406L265,421L358,500Z" fill="#aedd90" stroke="#aedd90" stroke-width="1.51"/>
    <path d="M1281,310L1254,181L1173,206Z" fill="#78ac6b" stroke="#78ac6b" stroke-width="1.51"/>
    <path d="M370,819L468,820L486,720Z" fill="#6ea666" stroke="#6ea666" stroke-width="1.51"/>
    <path d="M556,804L571,910L647,891Z" fill="#549058" stroke="#549058" stroke-width="1.51"/>
    <path d="M374,604L349,693L486,720Z" fill="#7fb76f" stroke="#7fb76f" stroke-width="1.51"/>
    <path d="M270,613L349,693L374,604Z" fill="#8bc178" stroke="#8bc178" stroke-width="1.51"/>
    <path d="M270,613L374,604L358,500Z" fill="#93cd80" stroke="#93cd80" stroke-width="1.51"/>
    <path d="M1160,900L1195,804L1060,808Z" fill="#0d6938" stroke="#0d6938" stroke-width="1.51"/>
    <path d="M472,898L571,910L556,804Z" fill="#5d935c" stroke="#5d935c" stroke-width="1.51"/>
    <path d="M773,1003L884,985L782,895Z" fill="#317c48" stroke="#317c48" stroke-width="1.51"/>
    <path d="M884,-14L778,-99L751,14Z" fill="#b2dca7" stroke="#b2dca7" stroke-width="1.51"/>
    <path d="M878,-112L778,-99L884,-14Z" fill="#acdaa4" stroke="#acdaa4" stroke-width="1.51"/>
    <path d="M878,-112L884,-14L959,-100Z" fill="#a5d59f" stroke="#a5d59f" stroke-width="1.51"/>
    <path d="M992,904L1095,901L1060,808Z" fill="#156c3a" stroke="#156c3a" stroke-width="1.51"/>
    <path d="M1076,997L1095,901L992,904Z" fill="#146638" stroke="#146638" stroke-width="1.51"/>
    <path d="M267,305L362,406L370,301Z" fill="#c6e89a" stroke="#c6e89a" stroke-width="1.51"/>
    <path d="M265,421L264,493L358,500Z" fill="#abdb8f" stroke="#abdb8f" stroke-width="1.51"/>
    <path d="M959,-100L884,-14L956,-11Z" fill="#a3d29c" stroke="#a3d29c" stroke-width="1.51"/>
    <path d="M1053,-123L959,-100L1060,3Z" fill="#9bc795" stroke="#9bc795" stroke-width="1.51"/>
    <path d="M1060,3L959,-100L956,-11Z" fill="#9ecb98" stroke="#9ecb98" stroke-width="1.51"/>
    <path d="M891,915L972,1004L992,904Z" fill="#1d713e" stroke="#1d713e" stroke-width="1.51"/>
    <path d="M773,1003L782,895L678,997Z" fill="#3b814d" stroke="#3b814d" stroke-width="1.51"/>
    <path d="M1281,310L1391,214L1254,181Z" fill="#73a467" stroke="#73a467" stroke-width="1.51"/>
    <path d="M1381,398L1257,386L1252,489Z" fill="#4b9458" stroke="#4b9458" stroke-width="1.51"/>
    <path d="M1270,622L1373,514L1252,489Z" fill="#2b874a" stroke="#2b874a" stroke-width="1.51"/>
    <path d="M1195,804L1290,721L1154,691Z" fill="#0f713b" stroke="#0f713b" stroke-width="1.51"/>
    <path d="M1262,805L1290,721L1195,804Z" fill="#036a38" stroke="#036a38" stroke-width="1.51"/>
    <path d="M1158,80L1178,13L1060,3Z" fill="#92bc89" stroke="#92bc89" stroke-width="1.51"/>
    <path d="M1294,98L1178,13L1158,80Z" fill="#8cb580" stroke="#8cb580" stroke-width="1.51"/>
    <path d="M1294,98L1158,80L1254,181Z" fill="#87b275" stroke="#87b275" stroke-width="1.51"/>
    <path d="M266,219L370,301L360,201Z" fill="#d9f0a3" stroke="#d9f0a3" stroke-width="1.51"/>
    <path d="M266,219L267,305L370,301Z" fill="#d5eea2" stroke="#d5eea2" stroke-width="1.51"/>
    <path d="M550,11L479,-19L448,92Z" fill="#dbf0b7" stroke="#dbf0b7" stroke-width="1.51"/>
    <path d="M448,92L359,97L360,201Z" fill="#e2f4ab" stroke="#e2f4ab" stroke-width="1.51"/>
    <path d="M567,-96L479,-19L550,11Z" fill="#d7efba" stroke="#d7efba" stroke-width="1.51"/>
    <path d="M366,-20L359,97L448,92Z" fill="#e6f5b7" stroke="#e6f5b7" stroke-width="1.51"/>
    <path d="M778,-99L679,-115L751,14Z" fill="#bbe2ad" stroke="#bbe2ad" stroke-width="1.51"/>
    <path d="M878,-112L679,-115L778,-99Z" fill="#b5dea9" stroke="#b5dea9" stroke-width="1.51"/>
    <path d="M1365,614L1373,514L1270,622Z" fill="#217d44" stroke="#217d44" stroke-width="1.51"/>
    <path d="M678,997L782,895L647,891Z" fill="#418450" stroke="#418450" stroke-width="1.51"/>
    <path d="M264,493L270,613L358,500Z" fill="#9dd387" stroke="#9dd387" stroke-width="1.51"/>
    <path d="M370,819L472,898L468,820Z" fill="#6a9c62" stroke="#6a9c62" stroke-width="1.51"/>
    <path d="M1373,514L1381,398L1252,489Z" fill="#3e8c52" stroke="#3e8c52" stroke-width="1.51"/>
    <path d="M571,910L678,997L647,891Z" fill="#4c8854" stroke="#4c8854" stroke-width="1.51"/>
    <path d="M468,820L472,898L556,804Z" fill="#639a5f" stroke="#639a5f" stroke-width="1.51"/>
    <path d="M370,819L486,720L349,693Z" fill="#77ae6b" stroke="#77ae6b" stroke-width="1.51"/>
    <path d="M559,1008L678,997L571,910Z" fill="#518a56" stroke="#518a56" stroke-width="1.51"/>
    <path d="M1095,901L1160,900L1060,808Z" fill="#106637" stroke="#106637" stroke-width="1.51"/>
    <path d="M1168,997L1160,900L1095,901Z" fill="#0c5f34" stroke="#0c5f34" stroke-width="1.51"/>
    <path d="M1364,679L1365,614L1270,622Z" fill="#19753e" stroke="#19753e" stroke-width="1.51"/>
    <path d="M1290,721L1364,679L1270,622Z" fill="#13713b" stroke="#13713b" stroke-width="1.51"/>
    <path d="M1273,884L1262,805L1195,804Z" fill="#026235" stroke="#026235" stroke-width="1.51"/>
    <path d="M679,-115L567,-96L649,17Z" fill="#cae8b3" stroke="#cae8b3" stroke-width="1.51"/>
    <path d="M283,784L370,819L349,693Z" fill="#7cae6d" stroke="#7cae6d" stroke-width="1.51"/>
    <path d="M359,97L266,219L360,201Z" fill="#e3f4aa" stroke="#e3f4aa" stroke-width="1.51"/>
    <path d="M267,305L163,377L265,421Z" fill="#c7e89d" stroke="#c7e89d" stroke-width="1.51"/>
    <path d="M265,421L161,499L264,493Z" fill="#b1dd93" stroke="#b1dd93" stroke-width="1.51"/>
    <path d="M1391,214L1281,310L1356,317Z" fill="#699d63" stroke="#699d63" stroke-width="1.51"/>
    <path d="M1391,214L1294,98L1254,181Z" fill="#7da76e" stroke="#7da76e" stroke-width="1.51"/>
    <path d="M884,985L972,1004L891,915Z" fill="#207541" stroke="#207541" stroke-width="1.51"/>
    <path d="M867,1092L972,1004L884,985Z" fill="#217542" stroke="#217542" stroke-width="1.51"/>
    <path d="M270,613L287,716L349,693Z" fill="#88bb75" stroke="#88bb75" stroke-width="1.51"/>
    <path d="M1368,825L1364,679L1290,721Z" fill="#086536" stroke="#086536" stroke-width="1.51"/>
    <path d="M1473,602L1465,484L1373,514Z" fill="#2a7a45" stroke="#2a7a45" stroke-width="1.51"/>
    <path d="M1373,514L1465,484L1381,398Z" fill="#3c844f" stroke="#3c844f" stroke-width="1.51"/>
    <path d="M1177,-82L1053,-123L1060,3Z" fill="#95bf90" stroke="#95bf90" stroke-width="1.51"/>
    <path d="M959,-100L1053,-123L878,-112Z" fill="#a0ce9a" stroke="#a0ce9a" stroke-width="1.51"/>
    <path d="M878,-112L1053,-123L679,-115Z" fill="#a9d8a2" stroke="#a9d8a2" stroke-width="1.51"/>
    <path d="M1177,-82L1060,3L1178,13Z" fill="#92bc8e" stroke="#92bc8e" stroke-width="1.51"/>
    <path d="M1465,293L1391,214L1356,317Z" fill="#689760" stroke="#689760" stroke-width="1.51"/>
    <path d="M1160,900L1273,884L1195,804Z" fill="#056034" stroke="#056034" stroke-width="1.51"/>
    <path d="M972,1004L1076,997L992,904Z" fill="#176a3a" stroke="#176a3a" stroke-width="1.51"/>
    <path d="M472,898L559,1008L571,910Z" fill="#5a8e59" stroke="#5a8e59" stroke-width="1.51"/>
    <path d="M749,1114L867,1092L773,1003Z" fill="#337d4a" stroke="#337d4a" stroke-width="1.51"/>
    <path d="M773,1003L867,1092L884,985Z" fill="#2c7a46" stroke="#2c7a46" stroke-width="1.51"/>
    <path d="M445,1014L559,1008L472,898Z" fill="#60905c" stroke="#60905c" stroke-width="1.51"/>
    <path d="M1283,-25L1178,13L1294,98Z" fill="#8ab285" stroke="#8ab285" stroke-width="1.51"/>
    <path d="M1283,-25L1177,-82L1178,13Z" fill="#8db68b" stroke="#8db68b" stroke-width="1.51"/>
    <path d="M370,819L348,893L472,898Z" fill="#6d9a63" stroke="#6d9a63" stroke-width="1.51"/>
    <path d="M287,716L283,784L349,693Z" fill="#82b471" stroke="#82b471" stroke-width="1.51"/>
    <path d="M177,783L283,784L287,716Z" fill="#84b173" stroke="#84b173" stroke-width="1.51"/>
    <path d="M454,-100L366,-20L479,-19Z" fill="#e3f4bf" stroke="#e3f4bf" stroke-width="1.51"/>
    <path d="M479,-19L366,-20L448,92Z" fill="#e3f4bc" stroke="#e3f4bc" stroke-width="1.51"/>
    <path d="M359,97L263,76L266,219Z" fill="#ebf7b0" stroke="#ebf7b0" stroke-width="1.51"/>
    <path d="M567,-96L454,-100L479,-19Z" fill="#dbf0bc" stroke="#dbf0bc" stroke-width="1.51"/>
    <path d="M383,-123L454,-100L567,-96Z" fill="#dff2bd" stroke="#dff2bd" stroke-width="1.51"/>
    <path d="M1262,805L1368,825L1290,721Z" fill="#006435" stroke="#006435" stroke-width="1.51"/>
    <path d="M1168,997L1273,884L1160,900Z" fill="#065b32" stroke="#065b32" stroke-width="1.51"/>
    <path d="M179,212L183,293L266,219Z" fill="#e3f4aa" stroke="#e3f4aa" stroke-width="1.51"/>
    <path d="M266,219L183,293L267,305Z" fill="#daf0a6" stroke="#daf0a6" stroke-width="1.51"/>
    <path d="M264,493L172,585L270,613Z" fill="#9dd286" stroke="#9dd286" stroke-width="1.51"/>
    <path d="M270,613L157,691L287,716Z" fill="#8ebe78" stroke="#8ebe78" stroke-width="1.51"/>
    <path d="M183,293L163,377L267,305Z" fill="#d3eda3" stroke="#d3eda3" stroke-width="1.51"/>
    <path d="M283,784L348,893L370,819Z" fill="#76a369" stroke="#76a369" stroke-width="1.51"/>
    <path d="M163,377L161,499L265,421Z" fill="#bce399" stroke="#bce399" stroke-width="1.51"/>
    <path d="M280,-10L263,76L359,97Z" fill="#eff9bd" stroke="#eff9bd" stroke-width="1.51"/>
    <path d="M1473,602L1365,614L1364,679Z" fill="#196e3c" stroke="#196e3c" stroke-width="1.51"/>
    <path d="M1473,602L1373,514L1365,614Z" fill="#207742" stroke="#207742" stroke-width="1.51"/>
    <path d="M1381,398L1465,293L1356,317Z" fill="#5c915b" stroke="#5c915b" stroke-width="1.51"/>
    <path d="M1465,484L1467,416L1381,398Z" fill="#438551" stroke="#438551" stroke-width="1.51"/>
    <path d="M161,499L172,585L264,493Z" fill="#a8d88e" stroke="#a8d88e" stroke-width="1.51"/>
    <path d="M1388,-14L1283,-25L1294,98Z" fill="#87ab83" stroke="#87ab83" stroke-width="1.51"/>
    <path d="M972,1004L1079,1112L1076,997Z" fill="#156738" stroke="#156738" stroke-width="1.51"/>
    <path d="M749,1114L773,1003L678,997Z" fill="#3d824e" stroke="#3d824e" stroke-width="1.51"/>
    <path d="M1076,997L1168,997L1095,901Z" fill="#0f6135" stroke="#0f6135" stroke-width="1.51"/>
    <path d="M1079,1112L1168,997L1076,997Z" fill="#0f6235" stroke="#0f6235" stroke-width="1.51"/>
    <path d="M1391,214L1383,92L1294,98Z" fill="#7fa46f" stroke="#7fa46f" stroke-width="1.51"/>
    <path d="M1489,112L1383,92L1391,214Z" fill="#7b9d6b" stroke="#7b9d6b" stroke-width="1.51"/>
    <path d="M1467,416L1465,293L1381,398Z" fill="#538b56" stroke="#538b56" stroke-width="1.51"/>
    <path d="M263,76L179,212L266,219Z" fill="#ebf7b0" stroke="#ebf7b0" stroke-width="1.51"/>
    <path d="M78,293L84,401L163,377Z" fill="#cfebaa" stroke="#cfebaa" stroke-width="1.51"/>
    <path d="M1273,884L1368,825L1262,805Z" fill="#005c32" stroke="#005c32" stroke-width="1.51"/>
    <path d="M1384,903L1368,825L1273,884Z" fill="#00532f" stroke="#00532f" stroke-width="1.51"/>
    <path d="M678,1108L749,1114L678,997Z" fill="#428450" stroke="#428450" stroke-width="1.51"/>
    <path d="M678,1108L678,997L572,1094Z" fill="#4b8753" stroke="#4b8753" stroke-width="1.51"/>
    <path d="M1465,484L1569,488L1467,416Z" fill="#3c814e" stroke="#3c814e" stroke-width="1.51"/>
    <path d="M1582,309L1479,208L1465,293Z" fill="#67935f" stroke="#67935f" stroke-width="1.51"/>
    <path d="M1488,694L1473,602L1364,679Z" fill="#146638" stroke="#146638" stroke-width="1.51"/>
    <path d="M348,893L445,1014L472,898Z" fill="#68945f" stroke="#68945f" stroke-width="1.51"/>
    <path d="M572,1094L678,997L559,1008Z" fill="#518a56" stroke="#518a56" stroke-width="1.51"/>
    <path d="M263,76L166,84L179,212Z" fill="#f3fab6" stroke="#f3fab6" stroke-width="1.51"/>
    <path d="M366,-20L280,-10L359,97Z" fill="#eef8c1" stroke="#eef8c1" stroke-width="1.51"/>
    <path d="M255,-112L280,-10L366,-20Z" fill="#f1fac8" stroke="#f1fac8" stroke-width="1.51"/>
    <path d="M1177,-82L1252,-101L1053,-123Z" fill="#91ba8e" stroke="#91ba8e" stroke-width="1.51"/>
    <path d="M1283,-25L1252,-101L1177,-82Z" fill="#8cb48a" stroke="#8cb48a" stroke-width="1.51"/>
    <path d="M1372,-102L1252,-101L1283,-25Z" fill="#88ad88" stroke="#88ad88" stroke-width="1.51"/>
    <path d="M481,1106L572,1094L559,1008Z" fill="#5a8d59" stroke="#5a8d59" stroke-width="1.51"/>
    <path d="M348,893L364,1025L445,1014Z" fill="#6c9561" stroke="#6c9561" stroke-width="1.51"/>
    <path d="M283,784L277,910L348,893Z" fill="#779f69" stroke="#779f69" stroke-width="1.51"/>
    <path d="M172,585L157,691L270,613Z" fill="#97c780" stroke="#97c780" stroke-width="1.51"/>
    <path d="M60,604L157,691L172,585Z" fill="#9ac988" stroke="#9ac988" stroke-width="1.51"/>
    <path d="M62,517L172,585L161,499Z" fill="#a9d893" stroke="#a9d893" stroke-width="1.51"/>
    <path d="M454,-100L383,-123L366,-20Z" fill="#e7f6c1" stroke="#e7f6c1" stroke-width="1.51"/>
    <path d="M679,-115L383,-123L567,-96Z" fill="#d6eeb9" stroke="#d6eeb9" stroke-width="1.51"/>
    <path d="M1053,-123L383,-123L679,-115Z" fill="#bfe4af" stroke="#bfe4af" stroke-width="1.51"/>
    <path d="M867,1092L983,1118L972,1004Z" fill="#1e723f" stroke="#1e723f" stroke-width="1.51"/>
    <path d="M749,1114L983,1118L867,1092Z" fill="#277845" stroke="#277845" stroke-width="1.51"/>
    <path d="M1383,92L1388,-14L1294,98Z" fill="#84a67a" stroke="#84a67a" stroke-width="1.51"/>
    <path d="M1465,293L1479,208L1391,214Z" fill="#6d9661" stroke="#6d9661" stroke-width="1.51"/>
    <path d="M1571,402L1465,293L1467,416Z" fill="#528a56" stroke="#528a56" stroke-width="1.51"/>
    <path d="M177,783L277,910L283,784Z" fill="#7ea76e" stroke="#7ea76e" stroke-width="1.51"/>
    <path d="M445,1014L481,1106L559,1008Z" fill="#5f905b" stroke="#5f905b" stroke-width="1.51"/>
    <path d="M157,691L177,783L287,716Z" fill="#8bb777" stroke="#8bb777" stroke-width="1.51"/>
    <path d="M1468,818L1488,694L1364,679Z" fill="#095d33" stroke="#095d33" stroke-width="1.51"/>
    <path d="M1473,602L1569,488L1465,484Z" fill="#2c7a46" stroke="#2c7a46" stroke-width="1.51"/>
    <path d="M1286,1026L1384,903L1273,884Z" fill="#00512e" stroke="#00512e" stroke-width="1.51"/>
    <path d="M983,1118L1079,1112L972,1004Z" fill="#186b3b" stroke="#186b3b" stroke-width="1.51"/>
    <path d="M163,377L84,401L161,499Z" fill="#bfe4a0" stroke="#bfe4a0" stroke-width="1.51"/>
    <path d="M157,691L70,707L177,783Z" fill="#8eb97e" stroke="#8eb97e" stroke-width="1.51"/>
    <path d="M78,293L163,377L183,293Z" fill="#d7efaa" stroke="#d7efaa" stroke-width="1.51"/>
    <path d="M78,293L183,293L179,212Z" fill="#e1f3ae" stroke="#e1f3ae" stroke-width="1.51"/>
    <path d="M1497,16L1388,-14L1383,92Z" fill="#819f7c" stroke="#819f7c" stroke-width="1.51"/>
    <path d="M150,10L166,84L263,76Z" fill="#f8fcc3" stroke="#f8fcc3" stroke-width="1.51"/>
    <path d="M150,10L263,76L280,-10Z" fill="#f6fcc7" stroke="#f6fcc7" stroke-width="1.51"/>
    <path d="M1368,825L1468,818L1364,679Z" fill="#025c32" stroke="#025c32" stroke-width="1.51"/>
    <path d="M1286,1026L1273,884L1168,997Z" fill="#025830" stroke="#025830" stroke-width="1.51"/>
    <path d="M264,999L364,1025L277,910Z" fill="#749866" stroke="#749866" stroke-width="1.51"/>
    <path d="M277,910L364,1025L348,893Z" fill="#729764" stroke="#729764" stroke-width="1.51"/>
    <path d="M57,213L78,293L179,212Z" fill="#e7f6b5" stroke="#e7f6b5" stroke-width="1.51"/>
    <path d="M371,1114L481,1106L445,1014Z" fill="#67935f" stroke="#67935f" stroke-width="1.51"/>
    <path d="M572,1094L481,1106L678,1108Z" fill="#548b57" stroke="#548b57" stroke-width="1.51"/>
    <path d="M678,1108L481,1106L749,1114Z" fill="#4c8854" stroke="#4c8854" stroke-width="1.51"/>
    <path d="M1479,208L1489,112L1391,214Z" fill="#769967" stroke="#769967" stroke-width="1.51"/>
    <path d="M1584,195L1489,112L1479,208Z" fill="#769967" stroke="#769967" stroke-width="1.51"/>
    <path d="M-30,519L62,517L-56,403Z" fill="#b7dfaa" stroke="#b7dfaa" stroke-width="1.51"/>
    <path d="M84,401L62,517L161,499Z" fill="#b6df9f" stroke="#b6df9f" stroke-width="1.51"/>
    <path d="M1255,1119L1286,1026L1168,997Z" fill="#025831" stroke="#025831" stroke-width="1.51"/>
    <path d="M1578,589L1569,488L1473,602Z" fill="#227643" stroke="#227643" stroke-width="1.51"/>
    <path d="M1488,694L1578,589L1473,602Z" fill="#186b3b" stroke="#186b3b" stroke-width="1.51"/>
    <path d="M1384,903L1468,818L1368,825Z" fill="#00502e" stroke="#00502e" stroke-width="1.51"/>
    <path d="M1490,904L1468,818L1384,903Z" fill="#00492b" stroke="#00492b" stroke-width="1.51"/>
    <path d="M1569,488L1571,402L1467,416Z" fill="#428451" stroke="#428451" stroke-width="1.51"/>
    <path d="M983,1118L1167,1114L1079,1112Z" fill="#126436" stroke="#126436" stroke-width="1.51"/>
    <path d="M1079,1112L1167,1114L1168,997Z" fill="#0c5f34" stroke="#0c5f34" stroke-width="1.51"/>
    <path d="M62,517L60,604L172,585Z" fill="#a2d393" stroke="#a2d393" stroke-width="1.51"/>
    <path d="M1456,-127L1372,-102L1388,-14Z" fill="#83a283" stroke="#83a283" stroke-width="1.51"/>
    <path d="M1388,-14L1372,-102L1283,-25Z" fill="#86a885" stroke="#86a885" stroke-width="1.51"/>
    <path d="M1252,-101L1456,-127L1053,-123Z" fill="#8bb289" stroke="#8bb289" stroke-width="1.51"/>
    <path d="M383,-123L255,-112L366,-20Z" fill="#eef9c5" stroke="#eef9c5" stroke-width="1.51"/>
    <path d="M1571,402L1582,309L1465,293Z" fill="#5a8d59" stroke="#5a8d59" stroke-width="1.51"/>
    <path d="M1666,391L1582,309L1571,402Z" fill="#538b56" stroke="#538b56" stroke-width="1.51"/>
    <path d="M1569,488L1666,391L1571,402Z" fill="#448551" stroke="#448551" stroke-width="1.51"/>
    <path d="M1573,705L1578,589L1488,694Z" fill="#136637" stroke="#136637" stroke-width="1.51"/>
    <path d="M364,1025L371,1114L445,1014Z" fill="#6b9561" stroke="#6b9561" stroke-width="1.51"/>
    <path d="M171,912L264,999L277,910Z" fill="#799a69" stroke="#799a69" stroke-width="1.51"/>
    <path d="M171,912L277,910L177,783Z" fill="#7ea16e" stroke="#7ea16e" stroke-width="1.51"/>
    <path d="M170,-102L150,10L280,-10Z" fill="#fafdce" stroke="#fafdce" stroke-width="1.51"/>
    <path d="M59,115L57,213L179,212Z" fill="#f0f9bc" stroke="#f0f9bc" stroke-width="1.51"/>
    <path d="M-56,403L62,517L84,401Z" fill="#bfe3ac" stroke="#bfe3ac" stroke-width="1.51"/>
    <path d="M62,517L-30,519L60,604Z" fill="#a8d79e" stroke="#a8d79e" stroke-width="1.51"/>
    <path d="M59,115L179,212L166,84Z" fill="#f5fbbc" stroke="#f5fbbc" stroke-width="1.51"/>
    <path d="M60,604L70,707L157,691Z" fill="#95c287" stroke="#95c287" stroke-width="1.51"/>
    <path d="M50,814L171,912L177,783Z" fill="#84a877" stroke="#84a877" stroke-width="1.51"/>
    <path d="M1489,112L1497,16L1383,92Z" fill="#7f9d73" stroke="#7f9d73" stroke-width="1.51"/>
    <path d="M1554,76L1497,16L1489,112Z" fill="#7f9d74" stroke="#7f9d74" stroke-width="1.51"/>
    <path d="M1559,821L1573,705L1488,694Z" fill="#085c32" stroke="#085c32" stroke-width="1.51"/>
    <path d="M1559,821L1488,694L1468,818Z" fill="#025730" stroke="#025730" stroke-width="1.51"/>
    <path d="M1582,309L1584,195L1479,208Z" fill="#6d9662" stroke="#6d9662" stroke-width="1.51"/>
    <path d="M1657,198L1584,195L1582,309Z" fill="#6e9662" stroke="#6e9662" stroke-width="1.51"/>
    <path d="M267,1105L371,1114L364,1025Z" fill="#719764" stroke="#719764" stroke-width="1.51"/>
    <path d="M481,1106L371,1114L749,1114Z" fill="#5b8e59" stroke="#5b8e59" stroke-width="1.51"/>
    <path d="M749,1114L371,1114L983,1118Z" fill="#428450" stroke="#428450" stroke-width="1.51"/>
    <path d="M267,1105L364,1025L264,999Z" fill="#749866" stroke="#749866" stroke-width="1.51"/>
    <path d="M1368,1082L1397,1002L1286,1026Z" fill="#004d2c" stroke="#004d2c" stroke-width="1.51"/>
    <path d="M1286,1026L1397,1002L1384,903Z" fill="#004d2c" stroke="#004d2c" stroke-width="1.51"/>
    <path d="M1167,1114L1255,1119L1168,997Z" fill="#065b32" stroke="#065b32" stroke-width="1.51"/>
    <path d="M983,1118L1255,1119L1167,1114Z" fill="#0c5f34" stroke="#0c5f34" stroke-width="1.51"/>
    <path d="M150,10L59,115L166,84Z" fill="#fafdc9" stroke="#fafdc9" stroke-width="1.51"/>
    <path d="M55,-9L59,115L150,10Z" fill="#fcfed3" stroke="#fcfed3" stroke-width="1.51"/>
    <path d="M1584,195L1554,76L1489,112Z" fill="#7c9b6b" stroke="#7c9b6b" stroke-width="1.51"/>
    <path d="M1464,982L1490,904L1384,903Z" fill="#004529" stroke="#004529" stroke-width="1.51"/>
    <path d="M255,-112L170,-102L280,-10Z" fill="#f7fccc" stroke="#f7fccc" stroke-width="1.51"/>
    <path d="M1490,904L1559,821L1468,818Z" fill="#004d2c" stroke="#004d2c" stroke-width="1.51"/>
    <path d="M60,604L-39,703L70,707Z" fill="#96c18e" stroke="#96c18e" stroke-width="1.51"/>
    <path d="M72,1013L180,1002L171,912Z" fill="#7e9d71" stroke="#7e9d71" stroke-width="1.51"/>
    <path d="M-56,403L84,401L78,293Z" fill="#cfebb2" stroke="#cfebb2" stroke-width="1.51"/>
    <path d="M-59,294L78,293L57,213Z" fill="#e4f4bd" stroke="#e4f4bd" stroke-width="1.51"/>
    <path d="M171,912L180,1002L264,999Z" fill="#7c9b6b" stroke="#7c9b6b" stroke-width="1.51"/>
    <path d="M50,814L177,783L70,707Z" fill="#8bb47f" stroke="#8bb47f" stroke-width="1.51"/>
    <path d="M-39,703L50,814L70,707Z" fill="#8fb889" stroke="#8fb889" stroke-width="1.51"/>
    <path d="M1490,904L1582,884L1559,821Z" fill="#00492b" stroke="#00492b" stroke-width="1.51"/>
    <path d="M1397,1002L1464,982L1384,903Z" fill="#00472a" stroke="#00472a" stroke-width="1.51"/>
    <path d="M1473,1121L1464,982L1397,1002Z" fill="#004529" stroke="#004529" stroke-width="1.51"/>
    <path d="M1255,1119L1368,1082L1286,1026Z" fill="#00522e" stroke="#00522e" stroke-width="1.51"/>
    <path d="M1597,-95L1456,-127L1497,16Z" fill="#819e81" stroke="#819e81" stroke-width="1.51"/>
    <path d="M1497,16L1456,-127L1388,-14Z" fill="#819e81" stroke="#819e81" stroke-width="1.51"/>
    <path d="M1372,-102L1456,-127L1252,-101Z" fill="#85a784" stroke="#85a784" stroke-width="1.51"/>
    <path d="M1053,-123L1456,-127L383,-123Z" fill="#a0ce9a" stroke="#a0ce9a" stroke-width="1.51"/>
    <path d="M1584,195L1687,94L1554,76Z" fill="#7d9c6c" stroke="#7d9c6c" stroke-width="1.51"/>
    <path d="M1670,519L1666,391L1569,488Z" fill="#3b814d" stroke="#3b814d" stroke-width="1.51"/>
    <path d="M1670,519L1569,488L1578,589Z" fill="#2a7946" stroke="#2a7946" stroke-width="1.51"/>
    <path d="M1670,519L1578,589L1658,614Z" fill="#207441" stroke="#207441" stroke-width="1.51"/>
    <path d="M1658,614L1578,589L1573,705Z" fill="#176a3a" stroke="#176a3a" stroke-width="1.51"/>
    <path d="M180,1002L267,1105L264,999Z" fill="#799a69" stroke="#799a69" stroke-width="1.51"/>
    <path d="M1692,724L1658,614L1573,705Z" fill="#116335" stroke="#116335" stroke-width="1.51"/>
    <path d="M59,115L-19,190L57,213Z" fill="#f3fac5" stroke="#f3fac5" stroke-width="1.51"/>
    <path d="M-57,76L-19,190L59,115Z" fill="#f9fcce" stroke="#f9fcce" stroke-width="1.51"/>
    <path d="M-59,294L-56,403L78,293Z" fill="#d8efba" stroke="#d8efba" stroke-width="1.51"/>
    <path d="M-30,519L-48,578L60,604Z" fill="#a5d59f" stroke="#a5d59f" stroke-width="1.51"/>
    <path d="M-137,505L-48,578L-30,519Z" fill="#abd9a3" stroke="#abd9a3" stroke-width="1.51"/>
    <path d="M60,-94L55,-9L150,10Z" fill="#fdfeda" stroke="#fdfeda" stroke-width="1.51"/>
    <path d="M1684,309L1657,198L1582,309Z" fill="#67935e" stroke="#67935e" stroke-width="1.51"/>
    <path d="M1554,76L1598,7L1497,16Z" fill="#809d7b" stroke="#809d7b" stroke-width="1.51"/>
    <path d="M1666,391L1684,309L1582,309Z" fill="#5a8d59" stroke="#5a8d59" stroke-width="1.51"/>
    <path d="M1670,519L1684,309L1666,391Z" fill="#4a8753" stroke="#4a8753" stroke-width="1.51"/>
    <path d="M-135,285L-59,294L-152,187Z" fill="#e6f5c1" stroke="#e6f5c1" stroke-width="1.51"/>
    <path d="M-19,190L-59,294L57,213Z" fill="#ebf7c3" stroke="#ebf7c3" stroke-width="1.51"/>
    <path d="M180,1002L150,1106L267,1105Z" fill="#7c9c6c" stroke="#7c9c6c" stroke-width="1.51"/>
    <path d="M50,814L61,900L171,912Z" fill="#81a178" stroke="#81a178" stroke-width="1.51"/>
    <path d="M-23,882L61,900L50,814Z" fill="#84a480" stroke="#84a480" stroke-width="1.51"/>
    <path d="M-48,578L-39,703L60,604Z" fill="#9dca97" stroke="#9dca97" stroke-width="1.51"/>
    <path d="M1657,823L1692,724L1573,705Z" fill="#065b32" stroke="#065b32" stroke-width="1.51"/>
    <path d="M1593,991L1582,884L1490,904Z" fill="#004529" stroke="#004529" stroke-width="1.51"/>
    <path d="M1593,991L1490,904L1464,982Z" fill="#004529" stroke="#004529" stroke-width="1.51"/>
    <path d="M1687,94L1598,7L1554,76Z" fill="#7f9d76" stroke="#7f9d76" stroke-width="1.51"/>
    <path d="M-20,-6L-57,76L59,115Z" fill="#fdfed9" stroke="#fdfed9" stroke-width="1.51"/>
    <path d="M170,-102L60,-94L150,10Z" fill="#fdfed6" stroke="#fdfed6" stroke-width="1.51"/>
    <path d="M-57,-105L60,-94L170,-102Z" fill="#fefede" stroke="#fefede" stroke-width="1.51"/>
    <path d="M61,900L72,1013L171,912Z" fill="#7f9d75" stroke="#7f9d75" stroke-width="1.51"/>
    <path d="M-39,703L-29,820L50,814Z" fill="#8bb38a" stroke="#8bb38a" stroke-width="1.51"/>
    <path d="M1670,519L1692,724L1684,309Z" fill="#2e7b47" stroke="#2e7b47" stroke-width="1.51"/>
    <path d="M1658,614L1692,724L1670,519Z" fill="#1a6d3c" stroke="#1a6d3c" stroke-width="1.51"/>
    <path d="M1657,823L1573,705L1559,821Z" fill="#015730" stroke="#015730" stroke-width="1.51"/>
    <path d="M1582,884L1657,823L1559,821Z" fill="#004e2c" stroke="#004e2c" stroke-width="1.51"/>
    <path d="M1655,899L1657,823L1582,884Z" fill="#00492b" stroke="#00492b" stroke-width="1.51"/>
    <path d="M-54,1001L72,1013L61,900Z" fill="#819e7e" stroke="#819e7e" stroke-width="1.51"/>
    <path d="M1692,724L1687,94L1684,309Z" fill="#518a56" stroke="#518a56" stroke-width="1.51"/>
    <path d="M1684,309L1687,94L1657,198Z" fill="#739865" stroke="#739865" stroke-width="1.51"/>
    <path d="M1657,198L1687,94L1584,195Z" fill="#779a68" stroke="#779a68" stroke-width="1.51"/>
    <path d="M-20,-6L59,115L55,-9Z" fill="#fefedb" stroke="#fefedb" stroke-width="1.51"/>
    <path d="M60,-94L-20,-6L55,-9Z" fill="#fffee1" stroke="#fffee1" stroke-width="1.51"/>
    <path d="M267,1105L81,1114L371,1114Z" fill="#799a69" stroke="#799a69" stroke-width="1.51"/>
    <path d="M72,1013L150,1106L180,1002Z" fill="#7e9d72" stroke="#7e9d72" stroke-width="1.51"/>
    <path d="M-29,820L-23,882L50,814Z" fill="#86a986" stroke="#86a986" stroke-width="1.51"/>
    <path d="M1689,-11L1597,-95L1598,7Z" fill="#819e81" stroke="#819e81" stroke-width="1.51"/>
    <path d="M1598,7L1597,-95L1497,16Z" fill="#819e81" stroke="#819e81" stroke-width="1.51"/>
    <path d="M-59,294L-136,410L-56,403Z" fill="#d0ebb6" stroke="#d0ebb6" stroke-width="1.51"/>
    <path d="M-56,403L-137,505L-30,519Z" fill="#b7e0ab" stroke="#b7e0ab" stroke-width="1.51"/>
    <path d="M-48,578L-118,697L-39,703Z" fill="#98c493" stroke="#98c493" stroke-width="1.51"/>
    <path d="M-39,703L-118,780L-29,820Z" fill="#8cb58b" stroke="#8cb58b" stroke-width="1.51"/>
    <path d="M-29,820L-118,887L-23,882Z" fill="#84a484" stroke="#84a484" stroke-width="1.51"/>
    <path d="M-135,285L-136,410L-59,294Z" fill="#d8efba" stroke="#d8efba" stroke-width="1.51"/>
    <path d="M-136,410L-137,505L-56,403Z" fill="#bfe4af" stroke="#bfe4af" stroke-width="1.51"/>
    <path d="M-137,505L-130,584L-48,578Z" fill="#a7d7a0" stroke="#a7d7a0" stroke-width="1.51"/>
    <path d="M1368,1082L1473,1121L1397,1002Z" fill="#00472a" stroke="#00472a" stroke-width="1.51"/>
    <path d="M1255,1119L1473,1121L1368,1082Z" fill="#004c2c" stroke="#004c2c" stroke-width="1.51"/>
    <path d="M983,1118L1473,1121L1255,1119Z" fill="#025831" stroke="#025831" stroke-width="1.51"/>
    <path d="M-136,410L-152,187L-137,505Z" fill="#d0ebb6" stroke="#d0ebb6" stroke-width="1.51"/>
    <path d="M-152,187L-59,294L-19,190Z" fill="#ecf8c4" stroke="#ecf8c4" stroke-width="1.51"/>
    <path d="M1583,1091L1593,991L1464,982Z" fill="#004529" stroke="#004529" stroke-width="1.51"/>
    <path d="M1593,991L1655,899L1582,884Z" fill="#004529" stroke="#004529" stroke-width="1.51"/>
    <path d="M1657,823L1655,899L1692,724Z" fill="#00522e" stroke="#00522e" stroke-width="1.51"/>
    <path d="M-130,584L-118,697L-48,578Z" fill="#9ecb98" stroke="#9ecb98" stroke-width="1.51"/>
    <path d="M1687,94L1689,-11L1598,7Z" fill="#809d7b" stroke="#809d7b" stroke-width="1.51"/>
    <path d="M1692,724L1689,-11L1687,94Z" fill="#67935f" stroke="#67935f" stroke-width="1.51"/>
    <path d="M-130,584L-118,780L-118,697Z" fill="#95bf90" stroke="#95bf90" stroke-width="1.51"/>
    <path d="M-118,697L-118,780L-39,703Z" fill="#91ba8d" stroke="#91ba8d" stroke-width="1.51"/>
    <path d="M-31,1100L81,1114L72,1013Z" fill="#809d7c" stroke="#809d7c" stroke-width="1.51"/>
    <path d="M-118,887L-118,780L-137,1011Z" fill="#829f81" stroke="#829f81" stroke-width="1.51"/>
    <path d="M-135,285L-152,187L-136,410Z" fill="#dff2bd" stroke="#dff2bd" stroke-width="1.51"/>
    <path d="M-57,76L-152,187L-19,190Z" fill="#f6fccb" stroke="#f6fccb" stroke-width="1.51"/>
    <path d="M-154,108L-152,187L-57,76Z" fill="#fafdce" stroke="#fafdce" stroke-width="1.51"/>
    <path d="M-54,1001L61,900L-23,882Z" fill="#819e81" stroke="#819e81" stroke-width="1.51"/>
    <path d="M72,1013L81,1114L150,1106Z" fill="#7f9d75" stroke="#7f9d75" stroke-width="1.51"/>
    <path d="M150,1106L81,1114L267,1105Z" fill="#7e9c6e" stroke="#7e9c6e" stroke-width="1.51"/>
    <path d="M371,1114L81,1114L983,1118Z" fill="#61915c" stroke="#61915c" stroke-width="1.51"/>
    <path d="M983,1118L81,1114L1473,1121Z" fill="#2b7a46" stroke="#2b7a46" stroke-width="1.51"/>
    <path d="M1593,991L1684,1005L1655,899Z" fill="#004529" stroke="#004529" stroke-width="1.51"/>
    <path d="M1473,1121L1583,1091L1464,982Z" fill="#004529" stroke="#004529" stroke-width="1.51"/>
    <path d="M-118,9L-154,108L-57,76Z" fill="#fdfed9" stroke="#fdfed9" stroke-width="1.51"/>
    <path d="M-118,9L-57,76L-20,-6Z" fill="#fefee0" stroke="#fefee0" stroke-width="1.51"/>
    <path d="M-57,-105L-118,9L-20,-6Z" fill="#ffffe5" stroke="#ffffe5" stroke-width="1.51"/>
    <path d="M60,-94L-57,-105L-20,-6Z" fill="#ffffe5" stroke="#ffffe5" stroke-width="1.51"/>
    <path d="M255,-112L-57,-105L170,-102Z" fill="#fdfed6" stroke="#fdfed6" stroke-width="1.51"/>
    <path d="M383,-123L-57,-105L255,-112Z" fill="#fafdce" stroke="#fafdce" stroke-width="1.51"/>
    <path d="M1689,-11L1681,-116L1597,-95Z" fill="#819e81" stroke="#819e81" stroke-width="1.51"/>
    <path d="M1597,-95L1681,-116L1456,-127Z" fill="#819e81" stroke="#819e81" stroke-width="1.51"/>
    <path d="M-118,780L-118,887L-29,820Z" fill="#87ab86" stroke="#87ab86" stroke-width="1.51"/>
    <path d="M-137,1011L-118,780L-130,584Z" fill="#8ab189" stroke="#8ab189" stroke-width="1.51"/>
    <path d="M-118,887L-54,1001L-23,882Z" fill="#819e81" stroke="#819e81" stroke-width="1.51"/>
    <path d="M1661,1091L1684,1005L1593,991Z" fill="#004529" stroke="#004529" stroke-width="1.51"/>
    <path d="M1655,899L1684,1005L1692,724Z" fill="#00482a" stroke="#00482a" stroke-width="1.51"/>
    <path d="M-147,1090L-31,1100L-54,1001Z" fill="#819e81" stroke="#819e81" stroke-width="1.51"/>
    <path d="M-54,1001L-31,1100L72,1013Z" fill="#819e81" stroke="#819e81" stroke-width="1.51"/>
    <path d="M1583,1091L1661,1091L1593,991Z" fill="#004529" stroke="#004529" stroke-width="1.51"/>
    <path d="M1473,1121L1661,1091L1583,1091Z" fill="#004529" stroke="#004529" stroke-width="1.51"/>
    <path d="M-57,-105L-132,-104L-118,9Z" fill="#ffffe5" stroke="#ffffe5" stroke-width="1.51"/>
    <path d="M-118,9L-132,-104L-154,108Z" fill="#ffffe4" stroke="#ffffe4" stroke-width="1.51"/>
    <path d="M383,-123L-132,-104L-57,-105Z" fill="#fefedd" stroke="#fefedd" stroke-width="1.51"/>
    <path d="M-118,887L-137,1011L-54,1001Z" fill="#819e81" stroke="#819e81" stroke-width="1.51"/>
    <path d="M-147,1090L-137,1011L-130,584Z" fill="#829f81" stroke="#829f81" stroke-width="1.51"/>
    <path d="M-147,1090L-130,584L-137,505Z" fill="#91ba8d" stroke="#91ba8d" stroke-width="1.51"/>
    <path d="M-147,1090L-137,505L-152,187Z" fill="#a1d09b" stroke="#a1d09b" stroke-width="1.51"/>
    <path d="M-137,1011L-147,1090L-54,1001Z" fill="#819e81" stroke="#819e81" stroke-width="1.51"/>
    <path d="M-31,1100L-147,1090L81,1114Z" fill="#819e81" stroke="#819e81" stroke-width="1.51"/>
    <path d="M-154,108L-147,1090L-152,187Z" fill="#bbe1ac" stroke="#bbe1ac" stroke-width="1.51"/>
</svg>